<svg version="1.1" id="Layer_1" xmlns="http://www.w3.org/2000/svg" xmlns:xlink="http://www.w3.org/1999/xlink" x="0px" y="0px"
	 width="24px" height="24px" viewBox="-293 385 24 24" style="enable-background:new -293 385 24 24;" xml:space="preserve">
<path d="M-275.4,398.4c-1.1,0-2.5,0.2-3,0.3c-1.9-2-2.4-3.1-2.5-3.4c0.2-0.4,0.7-2,0.8-4.1c0-1-0.2-1.8-0.6-2.3
	c-0.5-0.5-1-0.5-1.2-0.5c-0.6,0-1.5,0.3-1.5,2.2c0,1.7,0.8,3.4,1,3.9c-1.1,3.3-2.3,5.6-2.6,6c-4.6,1.7-4.9,3.4-4.9,3.8
	c0,0.8,0.6,1.3,1.6,1.3c2.4,0,4.7-4.1,5-4.8c1.7-0.7,4.1-1.1,4.7-1.2c1.7,1.6,3.7,2,4.5,2c0.6,0,2,0,2-1.5
	C-272.1,398.9-273.9,398.4-275.4,398.4z M-287.5,404.1c-0.5,0.4-0.8,0.7-1.1,0.7c-0.1,0-0.2,0-0.4-0.2c0,0,0-0.1,0-0.2
	c0.1-0.2,0.4-1.2,3.2-2.4C-286.2,402.5-286.8,403.4-287.5,404.1z M-282.2,389.5c0.1-0.1,0.2-0.2,0.3-0.2c0.1,0,0.2,0,0.3,0.1
	c0.4,0.5,0.1,2.2-0.3,3.6C-282.3,391.9-282.6,390.2-282.2,389.5z M-282.6,399.7c0.5-1,1-2.4,1.3-3.2c0.6,1,1.4,1.9,1.8,2.4
	C-280.9,399.2-281.9,399.5-282.6,399.7z M-274.6,400.7c-0.6,0-1.7-0.4-2.8-1.2c0.5-0.1,1.1-0.1,1.9-0.1c1.3,0,1.7,0.4,1.7,0.7
	C-273.8,400.2-273.9,400.7-274.6,400.7z"/>
</svg>
