<?xml version="1.0" encoding="utf-8"?>
<!-- Generator: Adobe Illustrator 19.0.0, SVG Export Plug-In . SVG Version: 6.00 Build 0)  -->
<svg version="1.1" id="Capa_1" xmlns="http://www.w3.org/2000/svg" xmlns:xlink="http://www.w3.org/1999/xlink" x="0px" y="0px"
	 viewBox="-65 157 480 480" style="enable-background:new -65 157 480 480;" xml:space="preserve">
<g>
	<g>
		<path d="M175.1,256.1c-77.6,0-140.9,63.3-140.9,140.9s63.2,140.9,140.9,140.9c77.6,0,140.9-63.3,140.9-140.9
			S252.7,256.1,175.1,256.1z"/>
		<g>
			<g>
				<path d="M175.1,221.3c-12.9,0-23.4-7.9-23.4-17.6v-28.1c0-9.7,10.5-17.6,23.4-17.6s23.4,7.9,23.4,17.6v28.1
					C198.4,213.4,187.9,221.3,175.1,221.3z"/>
			</g>
			<g>
				<path d="M298.2,270.6c-9-9.2-10.7-22.3-3.7-29l20.1-19.6c6.9-6.8,19.9-4.8,28.9,4.5c9,9.2,10.7,22.3,3.7,29l-20.1,19.6
					C320.2,281.8,307.2,279.8,298.2,270.6z"/>
			</g>
			<g>
				<path d="M350.7,397.6c0.2-12.9,8.2-23.3,17.9-23.2l28.1,0.4c9.7,0.1,17.4,10.7,17.3,23.6c-0.2,12.9-8.2,23.3-17.9,23.2
					l-28.1-0.4C358.3,421.1,350.6,410.5,350.7,397.6z"/>
			</g>
			<g>
				<path d="M299.8,521.5c9.3-9,22.3-10.6,29-3.7l19.6,20.2c6.7,7,4.7,19.9-4.6,28.9c-9.3,9-22.3,10.6-29,3.7l-19.6-20.2
					C288.5,543.4,290.6,530.4,299.8,521.5z"/>
			</g>
			<g>
				<path d="M175.1,635.5c-12.9,0-23.4-7.9-23.4-17.6v-28.1c0-9.7,10.5-17.6,23.4-17.6s23.4,7.9,23.4,17.6v28.1
					C198.4,627.6,187.9,635.5,175.1,635.5z"/>
			</g>
			<g>
				<path d="M51.8,523.2c9,9.2,10.7,22.3,3.7,29l-20.1,19.6c-6.9,6.8-19.9,4.8-28.9-4.5c-9-9.2-10.7-22.3-3.7-29l20.1-19.6
					C29.8,511.9,42.8,513.9,51.8,523.2z"/>
			</g>
			<g>
				<path d="M-0.7,396.2c-0.2,12.9-8.2,23.3-17.9,23.2l-28.1-0.4c-9.7-0.1-17.4-10.7-17.3-23.6c0.2-12.9,8.2-23.3,17.9-23.2
					l28.1,0.4C-8.3,372.7-0.6,383.3-0.7,396.2z"/>
			</g>
			<g>
				<path d="M50.2,272.3c-9.3,9-22.3,10.6-29,3.7L1.6,255.8c-6.7-7-4.7-19.9,4.6-28.9s22.3-10.6,29-3.7l19.6,20.2
					C61.5,250.3,59.4,263.3,50.2,272.3z"/>
			</g>
		</g>
	</g>
</g>
</svg>
