<?xml version="1.0" encoding="utf-8"?>
<!-- Generator: Adobe Illustrator 19.0.0, SVG Export Plug-In . SVG Version: 6.00 Build 0)  -->
<svg version="1.1" id="Capa_1" xmlns="http://www.w3.org/2000/svg" xmlns:xlink="http://www.w3.org/1999/xlink" x="0px" y="0px"
	 viewBox="-65 157 481 481" style="enable-background:new -65 157 481 481;" xml:space="preserve">
<g>
	<g>
		<path d="M386.5,500.3c-4.1-5.1-11.1-7-17.2-4.8c-17.1,6.1-35.6,9.3-55.2,9.3c-93.4,0-169.4-76-169.4-169.4
			c0-56.2,27.8-108.5,74.2-140c5.3-3.6,7.8-10,6.4-16.2c-1.4-6.2-6.5-10.9-12.8-11.8c-7.2-1-14.4-1.4-21.6-1.4
			C63.6,166-40,269.6-40,397S63.6,628,191,628c80.8,0,154.4-41.1,196.7-109.9C391.1,512.5,390.6,505.4,386.5,500.3z"/>
	</g>
</g>
</svg>
