<?xml version="1.0" encoding="utf-8"?>
<!-- Generator: Adobe Illustrator 19.0.0, SVG Export Plug-In . SVG Version: 6.00 Build 0)  -->
<svg version="1.1" id="Layer_1" xmlns="http://www.w3.org/2000/svg" xmlns:xlink="http://www.w3.org/1999/xlink" x="0px" y="0px"
	 viewBox="0 0 421.9 421.9" style="enable-background:new 0 0 421.9 421.9;" xml:space="preserve">
<style type="text/css">
	.st0{display:none;}
</style>
<path class="st0" d="M-70.4,368.9c-70.3-0.1-140.6-0.1-211-0.1c-0.6,0-1.2,0.2-2.3,0.4c0,21.1,0,42.1,0,64.1c24.8,0,49.5,0,74.5,0
	c0,5.7,0,10.6,0,16c-30.1,0-60.2,0-90.9,0c0-32,0-64.2,0-97.1c77,0,154,0,231.7,0c-0.4-2.8-0.9-5.6-1.5-8.4
	c-3.6-16.6-9-32.4-16.2-47.3c-0.2-0.3-0.3-0.6-0.5-1c-9.7-18.6-20.9-35.1-33.5-49.4c-21.3-23.4-47.8-42-77.6-54
	c-17.8-6.9-37.2-11.6-58-14.1c-0.1,0-0.3-0.1-0.4-0.1c-6.7-0.6-13.4-1-20.2-1c-7.1,0-14,0.4-20.9,1c-11.5,2-23.1,3.6-34.4,6.6
	c-83.8,22.4-145.6,95.5-154.2,181.7c-0.2,1.6-0.7,3.1-1.1,4.7c0,0.2,0,0.5-0.1,0.7c0,11,0,22,0,33c2.1,11.3,3.6,22.8,6.3,33.9
	c20.7,84.7,92,147.9,178.5,158.8c3.6,0.4,7.1,1,10.7,1.5c10.6,0,21.1,0,31.7,0c0.3,0,0.6-0.1,1-0.1c11.2-2,22.4-3.6,33.4-6.2
	c82.2-19.3,146.5-90.3,158-174.1c0.2-1.8,0.5-3.6,0.9-5.5c0.9-8.1,1.5-16.4,1.5-24.8c0-5.9-0.3-11.7-0.7-17.4
	C-67.3,370.1-68.8,368.9-70.4,368.9z"/>
<g>
	<path d="M203.4,256.3h74.8v16h-74.8h-16.2v-80.4v-16.4h231.7C402.1,75.8,315.4,0,211,0C94.5,0,0,94.5,0,211s94.5,211,211,211
		s211-94.5,211-211c0-6.4-0.3-12.8-0.9-19.1H203.4V256.3z"/>
</g>
</svg>
